<svg xmlns="http://www.w3.org/2000/svg" viewBox="0 0 50 50" fill="none">
  <path d="M48.5736 32.2056C48.5736 40.3029 37.9758 40.0952 24.9049 40.0952C11.8313 40.0952 1.23296 40.3029 1.23296 32.2056C1.23296 24.1062 11.8308 17.543 24.9049 17.543C37.9758 17.543 48.5736 24.1062 48.5736 32.2056Z" fill="#DABE92"/>
  <path d="M26.8022 41.3287H24.9049H23.0077C16.4863 41.3287 11.183 41.2479 7.24286 40.2337C2.36978 38.9776 0 36.3518 0 32.2056C0 23.4402 11.1725 16.3095 24.9049 16.3095C38.6363 16.3095 49.8071 23.4402 49.8071 32.2056C49.8071 41.3287 38.6319 41.3287 26.8022 41.3287ZM24.9049 38.8617L26.8022 38.8628C39.5808 38.8628 47.3407 38.4144 47.3407 32.2056C47.3407 24.7996 37.2758 18.776 24.9049 18.776C12.5319 18.776 2.46648 24.7996 2.46648 32.2056C2.46648 35.1842 4.07967 36.8716 7.85824 37.8457C11.5187 38.7875 16.6626 38.8633 23.0077 38.8633L24.9049 38.8617Z" fill="#434B56"/>
  <path d="M31.8962 33.2216C31.2159 33.2216 30.6637 32.6688 30.6637 31.988C30.6637 25.6699 35.533 20.5293 41.5192 20.5293C42.2011 20.5293 42.7527 21.082 42.7527 21.7622C42.7527 22.4441 42.2011 22.9963 41.5192 22.9963C36.894 22.9963 33.1297 27.0293 33.1297 31.988C33.1297 32.6694 32.578 33.2216 31.8962 33.2216Z" fill="#434B56"/>
  <path d="M9.10055 31.5749C8.44176 31.5749 7.89505 31.054 7.86923 30.3902C7.61483 23.9012 11.4159 18.4358 17.1121 17.0985C17.7758 16.9413 18.4385 17.3534 18.5945 18.0172C18.7494 18.6798 18.3385 19.3435 17.6758 19.5001C13.1462 20.5633 10.1264 25.0018 10.3346 30.293C10.361 30.9738 9.83077 31.5474 9.15 31.5738C9.13296 31.5749 9.11758 31.5749 9.10055 31.5749Z" fill="#434B56"/>
  <path d="M19.1841 31.3073C18.5022 31.3073 17.9511 30.7556 17.9511 30.0749C17.9511 22.5793 23.4253 16.7089 30.4132 16.7089C31.0951 16.7089 31.6461 17.2611 31.6461 17.9419C31.6461 18.6238 31.0951 19.1765 30.4132 19.1765C24.8082 19.1765 20.4176 23.9633 20.4176 30.0749C20.4176 30.7556 19.8654 31.3073 19.1841 31.3073Z" fill="#434B56"/>
  <path d="M17.0429 8.91066C16.8126 8.91066 16.5786 8.84583 16.3714 8.71066C16.2918 8.65846 16.2154 8.59528 16.1473 8.52495C13.9082 6.2711 13.9121 2.61341 16.161 0.36176C16.6418 -0.120108 17.4242 -0.120108 17.9049 0.360661C18.3868 0.84143 18.3879 1.6233 17.906 2.10462C16.6132 3.39967 16.6132 5.50352 17.906 6.79528C18.3181 7.19747 18.4027 7.84802 18.0769 8.34912C17.8418 8.71231 17.4467 8.91066 17.0429 8.91066Z" fill="#434B56"/>
  <path d="M17.0473 15.3474C16.7319 15.3474 16.4154 15.2276 16.1753 14.9853C15.6929 14.5045 15.694 13.7227 16.1764 13.2413C17.467 11.9518 17.4637 9.84684 16.1687 8.54794C15.6885 8.06607 15.6896 7.28475 16.172 6.80398C16.6544 6.32321 17.4346 6.32486 17.9159 6.80728C20.1698 9.06827 20.1709 12.738 17.9192 14.988C17.678 15.2271 17.3632 15.3474 17.0473 15.3474Z" fill="#434B56"/>
  <path d="M24.9093 8.91058C24.6352 8.91058 24.3599 8.81992 24.1319 8.63475C24.1044 8.61168 24.0764 8.58695 24.0494 8.56003C24.0428 8.55343 24.0357 8.54629 24.028 8.5397C21.7731 6.28695 21.7731 2.61827 24.0269 0.361127C24.5082 -0.119642 25.2901 -0.120742 25.7709 0.360028C26.2533 0.841896 26.2544 1.62267 25.772 2.10508C24.4824 3.39574 24.4786 5.49135 25.7604 6.78311C25.7659 6.7886 25.7709 6.79409 25.7758 6.79794C26.2231 7.2386 26.2709 7.95673 25.8665 8.45508C25.6236 8.75453 25.2676 8.91058 24.9093 8.91058Z" fill="#434B56"/>
  <path d="M24.9137 15.3474C24.5983 15.3474 24.283 15.2276 24.0418 14.9864C23.5593 14.5045 23.5604 13.7238 24.0429 13.2413C25.3341 11.9518 25.3308 9.84684 24.0352 8.54794C23.5538 8.06607 23.5549 7.28475 24.0374 6.80398C24.5192 6.32321 25.3016 6.32376 25.7813 6.80618C28.0363 9.06662 28.0385 12.7369 25.7857 14.9869C25.5445 15.2271 25.2291 15.3474 24.9137 15.3474Z" fill="#434B56"/>
  <path d="M32.7747 8.91071C32.5758 8.91071 32.3742 8.86291 32.1879 8.76126C32.0703 8.69752 31.9621 8.61345 31.8687 8.51345C30.7918 7.42499 30.1989 5.98323 30.1989 4.45192C30.1989 2.90741 30.8011 1.45576 31.894 0.361805C32.3753 -0.118964 33.156 -0.120063 33.6385 0.361805C34.1209 0.842575 34.1209 1.62334 33.639 2.10576C33.0115 2.73378 32.6659 3.5662 32.6659 4.45247C32.6659 5.33708 33.011 6.16895 33.639 6.79477C33.6451 6.80192 33.6522 6.80961 33.6588 6.8162C34.0264 7.19312 34.1242 7.77829 33.861 8.2651C33.6374 8.67719 33.2126 8.91071 32.7747 8.91071Z" fill="#434B56"/>
  <path d="M32.7791 15.3474C32.4637 15.3474 32.1473 15.2265 31.9055 14.9853C31.4247 14.5034 31.4258 13.7227 31.9077 13.2413C33.2 11.9529 33.1967 9.84684 31.9011 8.54794C31.4214 8.06607 31.4225 7.28365 31.9044 6.80398C32.3868 6.32321 33.1676 6.32486 33.6484 6.80728C35.9027 9.06827 35.9033 12.7391 33.6505 14.988C33.4099 15.2271 33.094 15.3474 32.7791 15.3474Z" fill="#434B56"/>
</svg>